<?xml version="1.0" encoding="UTF-8"?>
<svg xmlns="http://www.w3.org/2000/svg" xmlns:xlink="http://www.w3.org/1999/xlink" viewBox="0 0 30 30" width="30px" height="30px">
<g id="surface166248035">
<path style="fill-rule:nonzero;fill:rgb(100%,100%,100%);fill-opacity:1;stroke-width:25;stroke-linecap:butt;stroke-linejoin:round;stroke:rgb(0%,0%,0%);stroke-opacity:1;stroke-miterlimit:10;" d="M 97.479145 17.201842 C 99.013106 17.176275 100.470369 17.764294 101.569708 18.863633 C 102.669047 19.937406 103.282631 21.394669 103.282631 22.92863 L 137.59223 22.92863 C 139.663078 22.903064 141.58053 24.002403 142.628736 25.766458 C 143.676943 27.55608 143.676943 29.780323 142.628736 31.544379 C 141.58053 33.334 139.663078 34.433339 137.59223 34.407773 L 34.407773 34.407773 C 32.336925 34.433339 30.419474 33.334 29.371267 31.544379 C 28.32306 29.780323 28.32306 27.55608 29.371267 25.766458 C 30.419474 24.002403 32.336925 22.903064 34.407773 22.92863 L 68.717372 22.92863 C 68.717372 21.394669 69.330957 19.937406 70.430295 18.863633 C 71.529634 17.764294 72.986898 17.176275 74.520859 17.201842 Z M 137.59223 45.86135 L 137.59223 137.59223 C 137.59223 143.932603 132.479026 149.071374 126.138653 149.071374 L 45.86135 149.071374 C 39.520977 149.071374 34.407773 143.932603 34.407773 137.59223 L 34.407773 45.86135 Z M 137.59223 45.86135 " transform="matrix(0.152791,0,0,0.152791,1.86,1.86)"/>
<path style=" stroke:none;fill-rule:nonzero;fill:rgb(100%,100%,100%);fill-opacity:1;" d="M 13.246094 4.488281 C 13.011719 4.484375 12.789062 4.574219 12.621094 4.742188 C 12.453125 4.90625 12.359375 5.128906 12.359375 5.363281 L 7.117188 5.363281 C 6.800781 5.359375 6.507812 5.527344 6.347656 5.796875 C 6.1875 6.070312 6.1875 6.410156 6.347656 6.679688 C 6.507812 6.953125 6.800781 7.121094 7.117188 7.117188 L 22.882812 7.117188 C 23.199219 7.121094 23.492188 6.953125 23.652344 6.679688 C 23.8125 6.410156 23.8125 6.070312 23.652344 5.796875 C 23.492188 5.527344 23.199219 5.359375 22.882812 5.363281 L 17.640625 5.363281 C 17.640625 5.128906 17.546875 4.90625 17.378906 4.742188 C 17.210938 4.574219 16.988281 4.484375 16.753906 4.488281 Z M 7.117188 8.867188 L 7.117188 22.882812 C 7.117188 23.851562 7.898438 24.636719 8.867188 24.636719 L 21.132812 24.636719 C 22.101562 24.636719 22.882812 23.851562 22.882812 22.882812 L 22.882812 8.867188 Z M 7.117188 8.867188 "/>
</g>
</svg>
