<svg width="36" height="36" viewBox="0 0 36 36" fill="none" xmlns="http://www.w3.org/2000/svg">
<mask id="path-1-outside-1_43_34" maskUnits="userSpaceOnUse" x="-2.71716" y="-2.99381" width="42.1159" height="42.1159" fill="black">
<rect fill="white" x="-2.71716" y="-2.99381" width="42.1159" height="42.1159"/>
<path d="M7.54104 23.6928C6.90032 24.0461 6.66205 24.8566 7.07775 25.4588C8.32221 27.2614 9.99975 28.7324 11.9648 29.7311C14.3249 30.9306 16.9909 31.3935 19.6172 31.0598C22.2435 30.7261 24.709 29.6112 26.6941 27.8596C28.6792 26.108 30.0924 23.8005 30.7505 21.2362C31.4086 18.6719 31.2812 15.969 30.3848 13.478C29.4885 10.9869 27.8646 8.82251 25.7235 7.26538C23.5824 5.70824 21.023 4.83016 18.377 4.74494C16.1738 4.67399 13.9952 5.15543 12.0365 6.136C11.3822 6.46355 11.2008 7.28862 11.5922 7.90683V7.90683C11.9836 8.52504 12.7994 8.70044 13.4617 8.38945C14.9649 7.68362 16.6195 7.33941 18.2917 7.39327C20.4071 7.46139 22.4533 8.1634 24.165 9.40828C25.8767 10.6532 27.175 12.3835 27.8916 14.3751C28.6082 16.3666 28.7101 18.5275 28.1839 20.5776C27.6578 22.6277 26.528 24.4724 24.941 25.8728C23.3539 27.2731 21.3828 28.1645 19.2832 28.4313C17.1835 28.698 15.0522 28.328 13.1653 27.369C11.6738 26.6109 10.3895 25.5125 9.41195 24.1701C8.98123 23.5786 8.18177 23.3394 7.54104 23.6928V23.6928Z"/>
</mask>
<path d="M7.54104 23.6928C6.90032 24.0461 6.66205 24.8566 7.07775 25.4588C8.32221 27.2614 9.99975 28.7324 11.9648 29.7311C14.3249 30.9306 16.9909 31.3935 19.6172 31.0598C22.2435 30.7261 24.709 29.6112 26.6941 27.8596C28.6792 26.108 30.0924 23.8005 30.7505 21.2362C31.4086 18.6719 31.2812 15.969 30.3848 13.478C29.4885 10.9869 27.8646 8.82251 25.7235 7.26538C23.5824 5.70824 21.023 4.83016 18.377 4.74494C16.1738 4.67399 13.9952 5.15543 12.0365 6.136C11.3822 6.46355 11.2008 7.28862 11.5922 7.90683V7.90683C11.9836 8.52504 12.7994 8.70044 13.4617 8.38945C14.9649 7.68362 16.6195 7.33941 18.2917 7.39327C20.4071 7.46139 22.4533 8.1634 24.165 9.40828C25.8767 10.6532 27.175 12.3835 27.8916 14.3751C28.6082 16.3666 28.7101 18.5275 28.1839 20.5776C27.6578 22.6277 26.528 24.4724 24.941 25.8728C23.3539 27.2731 21.3828 28.1645 19.2832 28.4313C17.1835 28.698 15.0522 28.328 13.1653 27.369C11.6738 26.6109 10.3895 25.5125 9.41195 24.1701C8.98123 23.5786 8.18177 23.3394 7.54104 23.6928V23.6928Z" fill="white"/>
<path d="M7.54104 23.6928C6.90032 24.0461 6.66205 24.8566 7.07775 25.4588C8.32221 27.2614 9.99975 28.7324 11.9648 29.7311C14.3249 30.9306 16.9909 31.3935 19.6172 31.0598C22.2435 30.7261 24.709 29.6112 26.6941 27.8596C28.6792 26.108 30.0924 23.8005 30.7505 21.2362C31.4086 18.6719 31.2812 15.969 30.3848 13.478C29.4885 10.9869 27.8646 8.82251 25.7235 7.26538C23.5824 5.70824 21.023 4.83016 18.377 4.74494C16.1738 4.67399 13.9952 5.15543 12.0365 6.136C11.3822 6.46355 11.2008 7.28862 11.5922 7.90683V7.90683C11.9836 8.52504 12.7994 8.70044 13.4617 8.38945C14.9649 7.68362 16.6195 7.33941 18.2917 7.39327C20.4071 7.46139 22.4533 8.1634 24.165 9.40828C25.8767 10.6532 27.175 12.3835 27.8916 14.3751C28.6082 16.3666 28.7101 18.5275 28.1839 20.5776C27.6578 22.6277 26.528 24.4724 24.941 25.8728C23.3539 27.2731 21.3828 28.1645 19.2832 28.4313C17.1835 28.698 15.0522 28.328 13.1653 27.369C11.6738 26.6109 10.3895 25.5125 9.41195 24.1701C8.98123 23.5786 8.18177 23.3394 7.54104 23.6928V23.6928Z" stroke="black" stroke-width="4" mask="url(#path-1-outside-1_43_34)"/>
<path d="M6.14119 10.2418L5.15847 11.7977L6.99861 11.7757L14.3835 11.6875L16.0648 11.6674L15.2444 10.1996L11.8034 4.04365L10.9829 2.57588L10.085 3.99756L6.14119 10.2418Z" fill="white" stroke="black" stroke-width="2"/>
</svg>
