<?xml version="1.0" encoding="UTF-8"?>
<svg xmlns="http://www.w3.org/2000/svg" xmlns:xlink="http://www.w3.org/1999/xlink" viewBox="0 0 48 48" width="48px" height="48px">
<g id="surface166424668">
<path style="fill-rule:nonzero;fill:rgb(100%,100%,100%);fill-opacity:1;stroke-width:23;stroke-linecap:butt;stroke-linejoin:round;stroke:rgb(0%,0%,0%);stroke-opacity:1;stroke-miterlimit:10;" d="M 105.574113 33.474018 L 114.312555 24.735575 C 118.713553 20.350466 124.560365 17.91959 130.788491 17.91959 C 137.016618 17.91959 142.86343 20.350466 147.264428 24.735575 C 156.33652 33.823556 156.33652 48.599467 147.264428 57.67156 L 138.525985 66.42589 Z M 130.915596 74.020391 L 66.171681 138.764306 C 64.805306 140.146569 63.089394 141.195182 61.246377 141.798929 L 24.989785 153.810315 C 24.433702 154.000972 23.861731 154.080413 23.28976 154.080413 C 21.89161 154.080413 20.525235 153.540218 19.49251 152.507493 C 18.046695 151.077566 17.554164 148.948564 18.189688 147.026106 L 30.201074 110.753626 C 30.804821 108.910609 31.853434 107.210585 33.235697 105.828322 L 97.979612 41.084407 Z M 130.915596 74.020391 " transform="matrix(0.24586,0,0,0.24586,2.856,2.856)"/>
<path style=" stroke:none;fill-rule:nonzero;fill:rgb(100%,100%,100%);fill-opacity:1;" d="M 36.914062 19.1875 L 39.0625 17.035156 C 41.292969 14.804688 41.292969 11.171875 39.0625 8.9375 C 37.980469 7.859375 36.542969 7.261719 35.011719 7.261719 C 33.480469 7.261719 32.042969 7.859375 30.960938 8.9375 L 28.8125 11.085938 Z M 26.945312 12.957031 L 11.027344 28.875 C 10.6875 29.214844 10.429688 29.632812 10.28125 30.085938 L 7.328125 39.003906 C 7.171875 39.476562 7.292969 40 7.648438 40.351562 C 7.902344 40.605469 8.238281 40.738281 8.582031 40.738281 C 8.722656 40.738281 8.863281 40.71875 9 40.671875 L 17.914062 37.71875 C 18.367188 37.570312 18.789062 37.3125 19.125 36.972656 L 35.042969 21.054688 Z M 26.945312 12.957031 "/>
</g>
</svg>
